<?xml version="1.0" encoding="UTF-8"?><svg version="1.1" width="358px" height="358px" viewBox="0 0 358.0 358.0" xmlns="http://www.w3.org/2000/svg" xmlns:xlink="http://www.w3.org/1999/xlink"><defs><clipPath id="i0"><path d="M179,0 C277.85897,0 358,80.1410298 358,179 C358,277.85897 277.85897,358 179,358 C80.1410298,358 0,277.85897 0,179 C0,80.1410298 80.1410298,0 179,0 Z"></path></clipPath><clipPath id="i1"><path d="M117.543333,0.000104938803 C128.290564,-0.0311026024 137.296982,6.90184016 138.323848,15.9965939 L139.793,25.062 L164.166667,25.3751842 C182.266788,25.3751842 197,37.8951962 197,53.2876553 L197,175.087529 C197,190.474913 182.266788,203 164.166667,203 L32.8333333,203 C14.7081672,202.983218 0.019740572,190.496204 0,175.087529 L0,53.2876553 C0,37.8951962 14.7272424,25.3751842 32.8333333,25.3751842 L56.941,25.042 L58.6642121,15.9915189 C59.7051403,6.8994879 68.7112562,-0.0270428649 79.4566667,0.000104938803 L117.543333,0.000104938803 Z M136.109091,89.320118 L90,132 L59.4581817,123.561107 C57.0001673,121.819605 53.6359944,121.32519 50.6329142,122.264104 C47.6298341,123.203019 45.4440861,125.432619 44.8990203,128.113036 C44.3539545,130.793453 45.5323794,133.517468 47.9903938,135.25897 L78.9850605,157.213398 C82.1309245,159.432941 86.2060356,160.464917 90.2677879,160.070619 C94.3304191,159.661768 98.0202042,157.859631 100.481939,155.0819 L150.436364,98.4551085 C153.396741,95.0901976 152.595694,90.3232596 148.645455,87.7976194 C144.686445,85.2838473 139.081796,85.9645127 136.109091,89.320118 Z"></path></clipPath></defs><g clip-path="url(#i0)"><polygon points="0,0 358,0 358,358 0,358 0,0" stroke="none" fill="#4F8BFE"></polygon></g><g transform="translate(80.0 83.0)"><g clip-path="url(#i1)"><polygon points="0,-2.06671973e-15 197,-2.06671973e-15 197,203 0,203 0,-2.06671973e-15" stroke="none" fill="#FFFFFF"></polygon></g></g><g transform="translate(150.0 130.0)"><path d="M0.5,0.5 L56.5,0.5" stroke="#508AFE" stroke-width="17" fill="none" stroke-linecap="round" stroke-miterlimit="10"></path></g></svg>